# xmcd
#
# Track frame offsets:
#	150
#	15644
#	41947
#	68096
#	88341
#	101658
#	128224
#	147855
#	165854
#	186996
#	208409
#	232849
#	252603
#	271337
#
# Disc length: 3825 seconds
#
# Revision: 1
# Processed by: cddbd v1.5.2PL0 Copyright (c) Steve Scherf et al.
# Submitted via: audiograbber 1.83.01
#
DISCID=cd0eef0e
DTITLE=James Dee - Hands of Time
DYEAR=2008
DGENRE=Conutry
TTITLE0=It Takes Two
TTITLE1=A Song For Lesley
TTITLE2=(Turn Back The), Hands Of Time
TTITLE3=He Knows It's Over
TTITLE4=I Just Want To Make Love With You
TTITLE5=No One Escapes It Today
TTITLE6=The Overland Stage
TTITLE7=We Got To Wake Up
TTITLE8=When We Needed You Most
TTITLE9=You Came Into My Life
TTITLE10=When There's No One Else Around
TTITLE11=Where's The Love
TTITLE12=Wrong Side Of Love
TTITLE13=We Are The Cowboys
EXTD=
EXTT0=
EXTT1=
EXTT2=
EXTT3=
EXTT4=
EXTT5=
EXTT6=
EXTT7=
EXTT8=
EXTT9=
EXTT10=
EXTT11=
EXTT12=
EXTT13=
PLAYORDER=
